<?xml version="1.0" standalone="no"?>
<!DOCTYPE svg PUBLIC "-//W3C//DTD SVG 20010904//EN"
 "http://www.w3.org/TR/2001/REC-SVG-20010904/DTD/svg10.dtd">
<svg version="1.0" xmlns="http://www.w3.org/2000/svg"
 width="717.000000pt" height="198.000000pt" viewBox="0 0 717.000000 198.000000"
 preserveAspectRatio="xMidYMid meet">

<g transform="translate(0.000000,198.000000) scale(0.100000,-0.100000)"
fill="#000000" stroke="none">
<path d="M2700 1629 l0 -181 -35 31 c-56 49 -100 64 -190 64 -191 0 -315 -113
-346 -314 -23 -144 25 -305 112 -384 69 -62 141 -89 234 -90 94 0 155 24 205
81 l30 35 0 -51 0 -50 100 0 100 0 0 520 0 520 -105 0 -105 0 0 -181z m-92
-277 c110 -50 134 -278 39 -370 -97 -93 -248 -57 -297 73 -17 44 -14 155 5
202 19 47 72 100 108 107 54 12 63 13 87 8 14 -2 40 -11 58 -20z"/>
<path d="M585 1790 c-241 -48 -385 -242 -385 -520 0 -84 27 -205 59 -268 30
-59 115 -147 174 -181 82 -46 158 -64 272 -63 204 2 338 78 418 237 13 28 29
67 35 87 l10 37 -104 3 -104 3 -26 -53 c-61 -125 -225 -168 -370 -97 -110 54
-160 164 -152 334 4 86 9 104 38 160 55 103 122 141 247 141 123 0 208 -50
248 -146 l14 -34 105 0 c59 0 106 2 106 3 0 16 -45 129 -64 162 -31 51 -111
127 -164 154 -91 46 -243 64 -357 41z"/>
<path d="M3870 1285 l0 -516 308 3 c299 3 308 4 352 26 61 32 97 68 128 127
36 68 38 188 5 251 -25 48 -72 90 -126 114 l-37 17 48 30 c125 78 136 260 22
373 -77 78 -102 83 -422 88 l-278 4 0 -517z m503 319 c92 -44 88 -172 -6 -215
-34 -15 -66 -19 -164 -19 l-123 0 0 125 0 125 130 0 c98 0 137 -4 163 -16z m9
-414 c20 -6 49 -25 63 -42 24 -28 27 -39 23 -85 -5 -62 -33 -98 -87 -113 -20
-5 -96 -10 -168 -10 l-133 0 0 130 0 130 133 0 c72 0 149 -5 169 -10z"/>
<path d="M1561 1539 c-111 -19 -222 -102 -272 -205 -76 -158 -27 -390 103
-495 158 -126 425 -110 554 34 77 85 117 234 95 354 -31 167 -134 273 -298
308 -76 16 -103 17 -182 4z m164 -178 c77 -34 115 -103 115 -206 0 -101 -36
-167 -111 -205 -98 -51 -228 9 -259 118 -16 59 -12 152 9 198 20 43 75 94 113
106 42 12 93 8 133 -11z"/>
<path d="M3319 1540 c-205 -36 -337 -238 -300 -462 28 -177 134 -288 301 -318
164 -30 330 42 395 171 14 27 25 51 25 54 0 3 -42 5 -93 5 -83 0 -96 -3 -113
-21 -32 -35 -76 -52 -135 -52 -96 0 -162 51 -184 145 l-7 28 273 2 274 3 3 39
c5 60 -16 164 -46 224 -65 133 -232 211 -393 182z m176 -184 c34 -26 74 -93
75 -123 0 -10 -43 -13 -181 -13 l-180 0 7 23 c12 40 32 71 61 98 46 43 65 50
125 46 43 -2 65 -10 93 -31z"/>
<path d="M4790 1266 c0 -316 5 -347 77 -426 53 -60 106 -82 198 -83 85 -1 145
23 193 77 l32 37 0 -51 0 -50 100 0 99 0 1 385 0 385 -100 0 -100 0 0 -222 c0
-132 -5 -239 -11 -263 -6 -22 -28 -56 -49 -77 -35 -36 -42 -38 -97 -38 -47 0
-67 5 -88 22 -51 40 -55 66 -55 333 l0 245 -100 0 -100 0 0 -274z"/>
<path d="M5620 1453 l0 -88 186 2 187 2 -20 -22 c-11 -12 -100 -112 -197 -221
l-176 -199 0 -78 0 -79 320 0 320 0 0 85 0 85 -197 0 -197 0 40 43 c23 23 111
124 197 224 l157 181 0 76 0 76 -310 0 -310 0 0 -87z"/>
<path d="M6370 1453 l0 -88 186 2 c176 3 186 2 172 -15 -8 -9 -94 -108 -191
-219 l-177 -202 0 -80 0 -81 315 0 315 0 0 85 0 85 -195 0 -196 0 196 226 195
227 0 73 0 74 -310 0 -310 0 0 -87z"/>
<path d="M253 430 c-50 -20 -76 -105 -49 -158 9 -17 26 -38 38 -46 45 -32 123
-11 146 38 11 24 10 26 -11 26 -12 0 -28 -9 -35 -20 -12 -20 -56 -27 -79 -12
-23 15 -34 63 -23 98 16 48 78 63 102 24 7 -11 23 -20 34 -20 32 0 20 37 -20
61 -33 20 -67 23 -103 9z"/>
<path d="M460 326 c0 -109 1 -116 20 -116 17 0 20 7 20 40 0 53 22 53 52 0 16
-28 30 -40 46 -40 l23 0 -23 39 -23 40 23 23 c26 29 28 68 5 97 -14 16 -34 23
-80 27 l-63 6 0 -116z m114 52 c16 -26 -4 -52 -43 -56 -30 -3 -31 -2 -31 38 0
40 1 41 31 38 18 -2 37 -11 43 -20z"/>
<path d="M753 421 c-4 -9 -23 -60 -44 -113 -35 -91 -36 -98 -18 -98 11 0 24
11 31 25 17 37 94 37 108 0 6 -16 17 -25 30 -25 24 0 25 -5 -25 135 -27 75
-36 90 -55 91 -12 1 -24 -6 -27 -15z m36 -63 c25 -67 25 -68 -12 -68 l-35 0
17 45 c9 25 17 45 19 45 1 0 6 -10 11 -22z"/>
<path d="M984 431 c-38 -17 -64 -60 -64 -108 0 -38 5 -50 34 -79 43 -43 90
-46 135 -8 17 14 31 32 31 40 0 21 -33 17 -48 -6 -18 -29 -76 -27 -96 2 -38
54 -6 128 54 128 19 0 34 -7 42 -20 14 -22 48 -27 48 -7 0 40 -89 78 -136 58z"/>
<path d="M1190 325 c0 -108 1 -115 20 -115 18 0 20 7 20 58 l0 57 28 -35 c57
-73 68 -82 89 -78 20 3 18 8 -27 63 l-50 59 45 46 c51 51 54 59 24 57 -12 -1
-41 -23 -65 -50 l-44 -49 0 51 c0 44 -3 51 -20 51 -19 0 -20 -7 -20 -115z"/>
<path d="M1510 419 c0 -15 7 -19 35 -19 l35 0 0 -96 c0 -86 2 -95 18 -92 14 3
17 17 20 96 l3 92 29 0 c23 0 30 5 30 19 0 17 -8 19 -85 19 -77 0 -85 -2 -85
-19z"/>
<path d="M1747 432 c-3 -4 -4 -54 -3 -112 1 -90 4 -105 19 -108 14 -3 17 5 17
47 l0 51 55 0 55 0 0 -50 c0 -43 3 -50 20 -50 19 0 20 7 20 113 0 106 -1 113
-20 114 -18 2 -20 -4 -20 -48 l0 -50 -52 3 -53 3 -5 45 c-4 40 -22 62 -33 42z"/>
<path d="M2005 427 c-3 -7 -4 -58 -3 -113 l3 -99 68 -3 c62 -3 67 -1 67 18 0
17 -6 20 -45 20 -43 0 -45 1 -45 30 0 29 2 30 45 30 33 0 45 4 45 15 0 11 -12
15 -45 15 -43 0 -45 1 -45 30 0 29 2 30 45 30 37 0 45 3 45 18 0 16 -9 19 -65
21 -48 1 -67 -2 -70 -12z"/>
<path d="M2364 431 c-36 -16 -64 -60 -64 -103 0 -71 44 -118 110 -118 31 0 90
43 90 66 0 21 -33 17 -48 -6 -18 -29 -76 -27 -96 2 -38 54 -6 128 54 128 19 0
34 -7 42 -20 14 -22 48 -27 48 -7 0 40 -89 78 -136 58z"/>
<path d="M2624 430 c-36 -14 -64 -59 -64 -102 0 -94 79 -145 160 -103 38 20
50 43 50 100 0 59 -13 83 -55 101 -38 16 -60 17 -91 4z m88 -47 c23 -21 24
-89 1 -115 -23 -26 -78 -24 -97 4 -37 52 -9 128 46 128 17 0 40 -7 50 -17z"/>
<path d="M2840 326 l0 -116 28 0 c108 2 162 40 162 113 0 75 -32 103 -129 113
l-61 6 0 -116z m130 54 c23 -23 27 -77 7 -104 -7 -9 -32 -20 -55 -23 l-42 -6
0 77 0 76 35 0 c22 0 43 -8 55 -20z"/>
<path d="M3100 323 l0 -114 67 3 c55 2 68 6 71 21 3 14 -4 17 -47 17 -50 0
-51 1 -51 30 0 29 1 30 50 30 38 0 50 4 50 15 0 11 -12 15 -50 15 -49 0 -50 1
-50 30 0 29 1 30 51 30 42 0 50 3 47 17 -2 13 -16 17 -71 19 l-67 2 0 -115z"/>
<path d="M3544 421 c-63 -39 -67 -143 -7 -190 46 -37 127 -19 151 33 11 24 10
26 -11 26 -12 0 -28 -9 -35 -20 -8 -13 -23 -20 -41 -20 -48 0 -68 31 -62 94 4
52 71 74 106 36 10 -11 26 -20 36 -20 16 0 17 3 7 26 -13 29 -55 54 -90 54
-13 0 -37 -9 -54 -19z"/>
<path d="M3820 429 c-40 -16 -60 -49 -60 -102 0 -59 11 -82 50 -102 49 -25 88
-19 126 19 29 29 34 41 34 80 0 81 -77 135 -150 105z m94 -51 c38 -53 9 -128
-49 -128 -40 0 -65 29 -65 75 0 46 25 75 65 75 24 0 39 -7 49 -22z"/>
<path d="M4040 434 c-1 -2 -1 -52 -1 -111 -1 -89 2 -109 15 -111 12 -3 16 11
18 74 l3 77 55 -77 c33 -46 61 -76 72 -76 16 0 18 11 18 115 0 108 -1 115 -20
115 -18 0 -20 -7 -20 -77 l0 -78 -54 74 c-30 41 -61 76 -70 77 -9 1 -16 0 -16
-2z"/>
<path d="M4343 426 c-17 -8 -36 -23 -42 -35 -14 -25 -14 -106 -1 -132 13 -24
61 -49 94 -49 16 0 32 -9 42 -25 10 -15 26 -25 41 -25 l24 0 -20 29 -21 29 21
37 c28 47 22 116 -13 151 -30 30 -83 39 -125 20z m97 -46 c24 -24 26 -77 4
-108 -18 -27 -69 -30 -96 -5 -23 21 -24 89 -1 115 21 24 68 23 93 -2z"/>
<path d="M4570 436 c-3 -2 -3 -46 0 -96 4 -81 8 -94 29 -111 33 -27 86 -25
116 6 23 22 25 32 25 114 0 79 -2 89 -17 87 -15 -2 -18 -16 -21 -81 -3 -88
-12 -105 -53 -105 -34 0 -38 11 -41 115 -2 54 -7 70 -18 73 -9 1 -18 1 -20 -2z"/>
<path d="M4820 324 l0 -114 70 0 c63 0 70 2 70 20 0 17 -7 20 -50 20 -49 0
-50 1 -50 30 0 29 1 30 50 30 38 0 50 4 50 15 0 11 -12 15 -50 15 -49 0 -50 1
-50 30 0 29 1 30 50 30 41 0 50 3 50 18 0 14 -10 17 -70 18 l-70 1 0 -113z"/>
<path d="M5030 324 c0 -107 1 -114 20 -114 17 0 20 7 20 40 0 29 4 40 15 40 8
0 24 -18 35 -40 13 -26 27 -40 40 -40 25 0 25 7 0 47 l-19 33 24 24 c45 45 20
114 -42 118 -16 1 -43 2 -60 3 l-33 2 0 -113z m110 57 c13 -25 13 -27 -6 -45
-8 -9 -26 -16 -40 -16 -21 0 -24 4 -24 40 0 38 2 40 30 40 19 0 33 -7 40 -19z"/>
<path d="M5346 433 c-17 -18 -3 -33 29 -33 l35 0 0 -95 c0 -88 1 -95 20 -95
19 0 20 7 20 95 l0 95 34 0 c27 0 34 4 32 18 -3 14 -15 17 -84 19 -44 1 -83
-1 -86 -4z"/>
<path d="M5580 324 c0 -107 1 -114 20 -114 17 0 20 7 20 50 l0 50 56 0 56 0
-3 -47 c-3 -39 0 -48 14 -51 15 -3 17 8 17 111 0 102 -2 115 -17 113 -12 -2
-17 -14 -17 -47 l-1 -44 -52 -3 -52 -3 -3 47 c-2 36 -7 48 -20 50 -16 2 -18
-9 -18 -112z"/>
<path d="M5840 323 l0 -113 70 0 c63 0 70 2 70 20 0 17 -7 20 -50 20 -49 0
-50 1 -50 30 0 29 1 30 50 30 38 0 50 4 50 15 0 11 -12 15 -50 15 -49 0 -50 1
-50 30 0 29 1 30 50 30 42 0 50 3 50 19 0 16 -8 19 -70 18 l-70 0 0 -114z"/>
<path d="M6140 326 l0 -116 60 0 c51 0 65 4 85 25 30 29 31 49 5 75 -19 19
-19 22 -5 36 39 39 1 80 -82 89 l-63 7 0 -116z m116 59 c9 -23 -15 -45 -47
-45 -26 0 -29 4 -29 30 0 28 3 30 35 30 23 0 38 -6 41 -15z m3 -93 c14 -26 -4
-42 -46 -42 -30 0 -33 3 -33 30 0 28 3 30 35 30 23 0 37 -6 44 -18z"/>
<path d="M6370 358 c0 -42 5 -88 11 -102 15 -32 59 -50 104 -42 52 10 65 36
65 136 0 79 -2 86 -20 87 -19 2 -20 -4 -20 -81 0 -90 -8 -106 -52 -106 -37 0
-48 24 -48 112 0 67 -2 74 -20 74 -18 0 -20 -7 -20 -78z"/>
<path d="M6614 431 c-2 -2 -4 -10 -4 -18 0 -9 16 -13 55 -13 l55 0 -55 -84
c-30 -46 -55 -89 -55 -95 0 -7 29 -11 80 -11 73 0 80 2 80 19 0 17 -8 20 -49
23 l-50 3 54 85 c30 46 52 86 49 90 -7 6 -154 7 -160 1z"/>
<path d="M6830 420 c0 -16 9 -20 49 -22 l50 -3 -54 -85 c-30 -46 -51 -88 -46
-93 4 -4 41 -7 81 -5 61 2 74 6 76 21 2 14 -6 17 -52 17 l-54 0 56 86 c31 47
53 88 49 92 -4 4 -40 8 -81 9 -66 1 -74 -1 -74 -17z"/>
<path d="M3303 263 c-7 -3 -13 -15 -13 -28 0 -13 6 -25 13 -28 9 -3 9 -8 -2
-21 -8 -9 -11 -20 -7 -24 12 -12 46 38 46 68 0 28 -14 41 -37 33z"/>
</g>
</svg>
